<svg xmlns="http://www.w3.org/2000/svg"><defs><linearGradient id="a" x1="-.8%" x2="57.6%" y1="7.7%" y2="78.4%"><stop offset="0%" stop-color="#41D1FF"></stop><stop offset="100%" stop-color="#BD34FE"></stop></linearGradient><linearGradient id="b" x1="43.4%" x2="50.3%" y1="2.2%" y2="89%"><stop offset="0%" stop-color="#FFEA83"></stop><stop offset="8.3%" stop-color="#FFDD35"></stop><stop offset="100%" stop-color="#FFA800"></stop></linearGradient></defs><symbol id="react" viewBox="0 0 256 228"><path fill="#00D8FF" d="M210 74a171 171 0 0 0-8-3l2-5c6-31 2-55-12-63s-35 0-58 19a171 171 0 0 0-6 6 156 156 0 0 0-4-4C101 4 78-5 64 3S46 34 52 63a171 171 0 0 0 2 8l-10 3C17 83 0 98 0 114s19 31 47 41a146 146 0 0 0 7 2 167 167 0 0 0-2 9c-6 29-1 51 12 59 14 8 37-1 59-20a146 146 0 0 0 5-5 168 168 0 0 0 7 6c22 19 44 26 57 19 14-8 18-32 12-61a145 145 0 0 0-1-7l5-2c29-10 48-25 48-41s-18-31-46-40m-6 71-4 1-13-32 12-32 8 2c24 8 38 20 38 30s-16 22-41 31m-10 21c2 13 3 24 1 33s-5 14-9 16c-8 5-25-1-43-17a157 157 0 0 1-7-6l22-27c12-1 24-3 34-6a134 134 0 0 1 2 7M87 215q-12 3-18 0c-8-4-11-22-7-47a157 157 0 0 1 2-8l35 5c7 10 14 19 22 27a135 135 0 0 1-5 5c-10 8-20 14-29 18m-37-70c-12-5-22-10-30-16q-9-9-9-15c0-10 14-22 37-30l9-2 12 32-12 33a135 135 0 0 1-7-2m13-85c-5-24-2-43 6-47 9-5 28 2 48 20a144 144 0 0 1 3 3L99 63l-35 5a160 160 0 0 1-1-8m110 28a348 348 0 0 0-8-13l24 4-8 22a381 381 0 0 0-8-13m-45-44 15 18a322 322 0 0 0-30 0zM83 88a323 323 0 0 0-7 13c-4-7-6-15-9-22l24-4a322 322 0 0 0-8 13m8 65-24-4 9-22a321 321 0 0 0 7 13zm37 31-15-18a383 383 0 0 0 30 0zm53-58 8 23-24 4a382 382 0 0 0 8-13 347 347 0 0 0 8-14m-17 8a359 359 0 0 1-13 20 329 329 0 0 1-23 1l-23-1a310 310 0 0 1-13-19 307 307 0 0 1-11-21 310 310 0 0 1 11-21 307 307 0 0 1 13-19l23-1 23 1a329 329 0 0 1 13 19 358 358 0 0 1 11 21 329 329 0 0 1-11 20m22-122c9 5 12 25 7 51l-1 5-35-5-21-27a161 161 0 0 1 6-5c19-17 36-23 44-19m-58 79a23 23 0 1 1 0 46 23 23 0 0 1 0-46"></path></symbol><symbol id="ts" viewBox="0 0 512 512"><rect width="512" height="512" fill="#3178c6" rx="50"></rect><path fill="#fff" fill-rule="evenodd" d="M317 407v50c8 5 18 8 29 10a197 197 0 0 0 69 0c11-3 20-7 29-12a58 58 0 0 0 26-52c0-9-1-17-4-24s-7-13-12-18-11-10-18-14l-24-12a305 305 0 0 1-31-16l-9-8c-2-3-3-7-3-11l3-9 7-7 12-5 16-1a99 99 0 0 1 53 15v-46c-7-3-16-5-25-7s-19-2-31-2-23 1-34 4-20 6-28 12c-8 5-14 12-19 21-5 8-7 18-7 30 0 15 4 27 13 38q13.5 15 39 27l19 8 16 8c4 3 8 6 10 10a19 19 0 0 1 1 21c-1 2-3 5-7 7l-12 5-16 1a95 95 0 0 1-62-23m-84-123h64v-41H118v41h64v183h51z" clip-rule="evenodd"></path></symbol><symbol id="vite" viewBox="0 0 256 257"><path fill="url(#a)" d="M255 38 135 253c-3 4-9 4-11 0L1 38c-3-5 1-11 7-10l120 22a7 7 0 0 0 2 0l118-22c6-1 10 5 7 10"></path><path fill="url(#b)" d="M185 0 96 18a3 3 0 0 0-2 3l-6 92a3 3 0 0 0 4 3l25-5c2-1 5 1 4 3l-7 37c-1 2 1 4 4 3l15-4c3-1 5 1 4 3l-11 57c-1 4 4 6 6 2l1-2 72-144c2-3-1-5-3-5l-26 5c-2 0-4-2-3-4l16-58c1-2-1-4-4-4"></path></symbol></svg>